<svg xmlns="http://www.w3.org/2000/svg" xmlns:xlink="http://www.w3.org/1999/xlink" version="1.1" x="0px" y="0px" viewBox="0 0 512 640" style="enable-background:new 0 0 512 512;" xml:space="preserve"><g><g><g><path d="M418.679,239.373c-0.586,0-1.176-0.056-1.759-0.169c-2.423-0.468-4.559-1.883-5.934-3.932     c-5.979-8.902-13.219-18.209-22.134-28.452c-3.36-3.86-2.954-9.713,0.906-13.074c3.859-3.36,9.712-2.956,13.073,0.906     c6.797,7.81,12.696,15.139,17.862,22.2c15.963-13.998,25.267-34.246,25.267-55.748c0-40.876-33.255-74.131-74.131-74.131     c-20.518,0-39.615,8.241-53.556,22.866c4.394,4.279,8.875,8.6,13.325,12.878c10.382-10.928,24.78-17.212,40.23-17.212     c30.657,0,55.599,24.941,55.599,55.599c0,5.118-4.149,9.266-9.267,9.266s-9.267-4.148-9.267-9.266     c0-20.438-16.628-37.066-37.065-37.066c-12.825,0-24.566,6.501-31.407,17.392c-1.482,2.359-3.948,3.927-6.714,4.268     c-2.758,0.34-5.537-0.581-7.549-2.511l-0.444-0.426c-7.055-6.77-14.349-13.771-21.423-20.669c-1.46-1.424-3.011-2.8-4.743-4.208     c-3.88-3.153-4.559-8.817-1.533-12.798C315.716,81.797,342.62,68.44,371.83,68.44c51.096,0,92.664,41.569,92.664,92.664     c0,30.709-15.179,59.368-40.603,76.664C422.343,238.821,420.524,239.373,418.679,239.373z"/></g><g><path d="M395.846,210.003c-2.588,0-5.16-1.078-6.993-3.183c-18.352-21.086-40.893-42.715-62.692-63.632     c-3.171-3.043-3.768-7.894-1.431-11.616c10.253-16.322,27.86-26.066,47.101-26.066c30.657,0,55.599,24.941,55.599,55.599     c0,5.118-4.149,9.266-9.267,9.266s-9.267-4.148-9.267-9.266c0-20.438-16.628-37.066-37.065-37.066     c-10.316,0-19.93,4.206-26.856,11.519c20.194,19.403,40.662,39.336,57.858,59.096c3.359,3.861,2.954,9.714-0.907,13.074     C400.171,209.253,398.003,210.003,395.846,210.003z"/></g><g><path d="M93.321,239.373c-1.846,0-3.664-0.552-5.212-1.605c-25.425-17.295-40.604-45.955-40.604-76.664     c0-51.095,41.569-92.664,92.664-92.664c29.211,0,56.115,13.356,73.814,36.646c3.026,3.982,2.347,9.646-1.535,12.799     c-1.735,1.409-3.285,2.785-4.74,4.205c-7.128,6.953-14.479,14.005-21.586,20.825l-0.284,0.273     c-2.011,1.929-4.783,2.849-7.549,2.51c-2.766-0.341-5.231-1.909-6.713-4.269c-6.839-10.89-18.58-17.391-31.406-17.391     c-20.438,0-37.065,16.627-37.065,37.066c0,5.118-4.149,9.266-9.267,9.266s-9.267-4.148-9.267-9.266     c0-30.657,24.941-55.599,55.599-55.599c15.452,0,29.849,6.283,40.23,17.212c4.451-4.279,8.932-8.6,13.327-12.879     c-13.941-14.625-33.039-22.866-53.557-22.866c-40.876,0-74.131,33.255-74.131,74.131c0,21.501,9.305,41.75,25.267,55.748     c5.166-7.061,11.065-14.39,17.862-22.2c3.36-3.86,9.212-4.267,13.074-0.906c3.86,3.36,4.266,9.213,0.906,13.074     c-8.916,10.243-16.156,19.55-22.134,28.452c-1.375,2.048-3.51,3.463-5.933,3.932C94.497,239.317,93.908,239.373,93.321,239.373z"/></g><g><path d="M116.154,210.003c-2.157,0-4.324-0.749-6.08-2.276c-3.86-3.36-4.266-9.213-0.907-13.074     c17.193-19.755,37.663-39.69,57.859-59.096c-6.926-7.313-16.54-11.518-26.856-11.518c-20.438,0-37.065,16.627-37.065,37.066     c0,5.118-4.149,9.266-9.267,9.266s-9.267-4.148-9.267-9.266c0-30.657,24.941-55.599,55.599-55.599     c19.242,0,36.849,9.745,47.1,26.067c2.337,3.721,1.739,8.572-1.431,11.614c-21.801,20.919-44.345,42.551-62.691,63.632     C121.315,208.925,118.742,210.003,116.154,210.003z"/></g><g><path d="M256.872,443.56c-51.058,0-99.158-15.834-135.439-44.587C84.525,369.726,64.2,330.666,64.2,288.991     c0-24.296,11.45-50.148,36.032-81.36c20.792-26.397,48.619-53.443,75.529-79.598c6.479-6.296,13.178-12.808,19.649-19.185     c16.285-16.048,37.866-24.886,60.77-24.886c19.995,0,39.549,6.939,55.058,19.538c2.172,1.766,4.133,3.507,5.996,5.324     c7.024,6.851,14.296,13.829,21.328,20.578l0.431,0.413c22.095,21.2,44.941,43.122,63.84,64.837     c9.428,10.831,17.127,20.738,23.54,30.288c15.684,23.357,23.308,44.308,23.308,64.05c0,41.682-20.332,80.74-57.252,109.983     C356.129,427.726,307.987,443.56,256.872,443.56z M256.18,102.496c-18.004,0-34.966,6.944-47.762,19.554     c-6.517,6.422-13.239,12.956-19.74,19.274C136.592,191.947,82.732,244.294,82.732,288.991     c0,75.011,78.119,136.036,174.139,136.036c96.095,0,174.275-61.025,174.275-136.036c0-15.943-6.595-33.515-20.16-53.719     c-5.979-8.902-13.219-18.209-22.134-28.452c-18.352-21.087-40.894-42.716-62.692-63.633l-0.431-0.413     c-7.06-6.774-14.358-13.779-21.437-20.683c-1.46-1.424-3.011-2.8-4.743-4.208C287.336,107.961,271.933,102.496,256.18,102.496z"/></g><g><g><path d="M256.923,336.116c-29.78,0-54.008-24.73-54.008-55.128c0-18.58,14.512-36.828,28.547-54.477      c1.597-2.008,3.192-4.015,4.763-6.017c5.266-6.713,12.75-10.564,20.534-10.564c7.773,0,15.272,3.838,20.575,10.531      c1.7,2.145,3.429,4.291,5.155,6.435c14,17.38,28.477,35.352,28.477,54.091C310.965,311.386,286.722,336.116,256.923,336.116z       M256.758,228.464c-2.084,0-4.197,1.232-5.951,3.468c-1.596,2.035-3.218,4.074-4.84,6.115      c-12.055,15.158-24.52,30.833-24.52,42.941c0,20.179,15.915,36.596,35.476,36.596c19.58,0,35.51-16.417,35.51-36.596      c0-12.203-12.393-27.588-24.377-42.465c-1.759-2.183-3.518-4.367-5.249-6.552C261.015,229.71,258.867,228.464,256.758,228.464z"/></g></g><g><path d="M344.031,263.035c-15.329,0-27.8-12.471-27.8-27.799c0-15.329,12.471-27.799,27.8-27.799     c15.328,0,27.799,12.471,27.799,27.799C371.83,250.564,359.359,263.035,344.031,263.035z M344.031,225.969     c-5.109,0-9.267,4.157-9.267,9.267c0,5.109,4.157,9.266,9.267,9.266c5.108,0,9.266-4.157,9.266-9.266     C353.297,230.126,349.14,225.969,344.031,225.969z"/></g><g><path d="M167.969,263.035c-15.329,0-27.799-12.471-27.799-27.799c0-15.329,12.471-27.799,27.799-27.799     c15.328,0,27.799,12.471,27.799,27.799C195.769,250.564,183.297,263.035,167.969,263.035z M167.969,225.969     c-5.11,0-9.267,4.157-9.267,9.267c0,5.109,4.157,9.266,9.267,9.266c5.109,0,9.266-4.157,9.266-9.266     C177.235,230.126,173.079,225.969,167.969,225.969z"/></g><g><path d="M208.046,383.498h-3.012c-5.118,0-9.266-4.148-9.266-9.267c0-5.117,4.148-9.266,9.266-9.266h3.012     c18.777,0,34.054-15.277,34.054-34.055v-4.062c0-5.117,4.148-9.266,9.266-9.266s9.266,4.148,9.266,9.266v4.062     C260.633,359.908,237.043,383.498,208.046,383.498z"/></g><g><path d="M306.965,383.498h-3.011c-28.997,0-52.587-23.59-52.587-52.587v-4.062c0-5.117,4.149-9.266,9.266-9.266     c5.118,0,9.267,4.148,9.267,9.266v4.062c0,18.777,15.277,34.055,34.055,34.055h3.011c5.118,0,9.267,4.148,9.267,9.266     C316.231,379.35,312.083,383.498,306.965,383.498z"/></g></g></g><text x="0" y="527" fill="#000000" font-size="5px" font-weight="bold" font-family="'Helvetica Neue', Helvetica, Arial-Unicode, Arial, Sans-serif">Created by Flatart</text><text x="0" y="532" fill="#000000" font-size="5px" font-weight="bold" font-family="'Helvetica Neue', Helvetica, Arial-Unicode, Arial, Sans-serif">from the Noun Project</text></svg>